HIERARCHY
ROOT Hips
{
 OFFSET 0.000000 0.000000 0.000000
 CHANNELS 6 Xposition Yposition Zposition Yrotation Xrotation Zrotation
 JOINT Chest
 {
  OFFSET 0.000000 9.585900 0.002600
  CHANNELS 3 Yrotation Xrotation Zrotation
  JOINT Chest2
  {
   OFFSET 0.000000 9.601200 -0.005300
   CHANNELS 3 Yrotation Xrotation Zrotation
   JOINT Chest3
   {
    OFFSET 0.000000 9.561800 0.000000
    CHANNELS 3 Yrotation Xrotation Zrotation
    JOINT Chest4
    {
     OFFSET 0.000000 9.552100 0.000000
     CHANNELS 3 Yrotation Xrotation Zrotation
     JOINT Neck
     {
      OFFSET 0.000000 14.453000 0.000000
      CHANNELS 3 Yrotation Xrotation Zrotation
      JOINT Head
      {
       OFFSET 0.000000 8.936500 -0.011300
       CHANNELS 3 Yrotation Xrotation Zrotation
       End Site
       {
        OFFSET 0.000000 17.073600 -0.006000
       }
      }
     }
     JOINT RightCollar
     {
      OFFSET -2.921100 9.558500 0.000000
      CHANNELS 3 Yrotation Xrotation Zrotation
      JOINT RightShoulder
      {
       OFFSET -13.519700 0.000000 0.000000
       CHANNELS 3 Yrotation Xrotation Zrotation
       JOINT RightElbow
       {
        OFFSET 0.000000 -29.696600 0.000000
        CHANNELS 3 Yrotation Xrotation Zrotation
        JOINT RightWrist
        {
         OFFSET 0.000000 -24.004700 0.000000
         CHANNELS 3 Yrotation Xrotation Zrotation
         End Site
         {
          OFFSET 0.000000 -17.728500 0.000000
         }
        }
       }
      }
     }
     JOINT LeftCollar
     {
      OFFSET 2.921100 9.558500 0.000000
      CHANNELS 3 Yrotation Xrotation Zrotation
      JOINT LeftShoulder
      {
       OFFSET 13.519700 0.000000 0.000000
       CHANNELS 3 Yrotation Xrotation Zrotation
       JOINT LeftElbow
       {
        OFFSET 0.000000 -29.696600 0.000000
        CHANNELS 3 Yrotation Xrotation Zrotation
        JOINT LeftWrist
        {
         OFFSET 0.000000 -24.004700 0.000000
         CHANNELS 3 Yrotation Xrotation Zrotation
         End Site
         {
          OFFSET 0.000000 -17.728500 0.000000
         }
        }
       }
      }
     }
    }
   }
  }
 }
 JOINT RightHip
 {
  OFFSET -7.771700 -0.012900 -0.001300
  CHANNELS 3 Yrotation Xrotation Zrotation
  JOINT RightKnee
  {
   OFFSET 0.000000 -40.869800 0.001200
   CHANNELS 3 Yrotation Xrotation Zrotation
   JOINT RightAnkle
   {
    OFFSET 0.000000 -39.717900 0.002100
    CHANNELS 3 Yrotation Xrotation Zrotation
    JOINT RightToe
    {
     OFFSET 0.000000 -4.965400 11.033500
     CHANNELS 3 Yrotation Xrotation Zrotation
     End Site
     {
      OFFSET 0.000000 -1.423100 5.872300
     }
    }
   }
  }
 }
 JOINT LeftHip
 {
  OFFSET 7.771700 -0.012900 -0.001300
  CHANNELS 3 Yrotation Xrotation Zrotation
  JOINT LeftKnee
  {
   OFFSET 0.000000 -40.869800 0.001200
   CHANNELS 3 Yrotation Xrotation Zrotation
   JOINT LeftAnkle
   {
    OFFSET 0.000000 -39.717900 0.002100
    CHANNELS 3 Yrotation Xrotation Zrotation
    JOINT LeftToe
    {
     OFFSET 0.000000 -4.965400 11.033500
     CHANNELS 3 Yrotation Xrotation Zrotation
     End Site
     {
      OFFSET 0.000000 -1.423100 5.872300
     }
    }
   }
  }
 }
}
MOTION
Frames: 5
Frame Time: 0.008333
0.000000 85.388000 0.000000 0.000000 -5.767877 0.000000 0.000000 11.653817 0.000000 0.000000 -5.885947 0.000000 0.000000 -0.000000 0.000000 0.000000 -0.000000 0.000000 0.000000 12.528835 0.000000 0.000000 0.711642 0.000000 0.000000 -0.000000 0.000000 0.000000 0.000000 -90.000000 0.000000 -2.309062 0.000000 0.000000 2.309062 0.000000 0.000000 -0.000000 0.000000 0.000000 -0.000000 90.000000 0.000000 -2.309062 0.000000 0.000000 2.309062 0.000000 0.000000 8.520406 0.000000 0.000000 1.905762 0.000000 -0.000000 -4.658285 0.000000 0.000000 -0.000000 0.000000 0.000000 8.520406 0.000000 0.000000 1.905762 0.000000 -0.000000 -4.658285 0.000000 0.000000 -0.000000 0.000000
-64.055837 50.239998 -3.794586 160.800866 -7.297088 1.882917 1.480074 7.391028 2.364540 0.036414 0.350133 0.068172 0.066440 0.578033 0.104737 0.830402 7.173651 1.458443 3.973898 18.214884 -2.388795 8.056292 -1.715795 -5.696591 1.398539 6.996911 -0.591107 -9.826602 -13.669376 -14.571774 -78.080160 -77.998608 107.924460 -2.495050 0.712955 -28.565298 -9.298548 3.135034 -1.802749 11.248419 -15.169995 13.312599 63.111953 -64.070808 -98.205281 -1.544787 8.589552 2.863097 17.726436 -72.836572 -13.532689 -114.523278 74.805795 -115.999195 -3.266147 -16.790004 5.452629 -0.355021 0.911856 -0.261255 -3.339677 -75.947232 22.292892 120.371173 78.327923 117.810603 -14.995969 -23.855824 -0.615887 -0.124482 -0.936484 -0.199458
-64.040044 50.241246 -3.789866 160.779120 -7.269886 1.938980 1.496369 7.404714 2.326497 0.036692 0.339560 0.063784 0.062342 0.582513 0.108539 0.840658 7.159742 1.432726 3.960960 18.190301 -2.387208 7.981790 -1.865110 -5.747158 1.425333 7.154851 -0.558239 -9.434195 -13.581192 -14.303436 -71.768728 -77.694277 101.277904 -2.721372 1.773499 -29.803027 -9.203049 3.381148 -1.819400 11.512529 -14.386253 13.079839 62.865918 -64.517280 -97.453833 -1.656092 8.986614 3.690020 17.645170 -72.879179 -13.543608 -114.616042 74.831197 -116.062736 -3.231036 -16.812000 5.324377 -0.318939 0.911258 -0.236152 -3.269108 -75.940585 22.214472 120.278802 78.321622 117.682257 -14.899220 -23.861590 -0.610054 -0.152400 -0.909434 -0.217824
-64.016880 50.242789 -3.785168 160.741954 -7.252948 1.980314 1.531720 7.432017 2.301829 0.036162 0.307501 0.055090 0.065341 0.611957 0.116274 0.844140 7.139919 1.408884 3.928596 18.141146 -2.415061 7.947084 -2.023913 -5.776764 1.470840 7.330710 -0.527948 -9.141331 -13.516446 -14.097104 -66.229049 -77.117246 95.516348 -3.031229 2.579229 -31.140326 -9.099625 3.622327 -1.842343 11.846063 -13.543723 12.806685 62.864427 -64.893762 -97.065477 -1.701825 9.309697 4.341134 17.516436 -72.918578 -13.492311 -114.725132 74.861764 -116.136786 -3.200289 -16.817355 5.226246 -0.303535 0.902178 -0.222966 -3.449036 -75.891951 22.375196 120.099811 78.309477 117.480290 -14.877330 -23.902804 -0.691529 -0.131399 -0.856022 -0.188915
-63.991877 50.244163 -3.777391 160.714493 -7.220682 2.022078 1.557831 7.446903 2.271533 0.036950 0.303658 0.056866 0.069949 0.656840 0.115317 0.870050 7.129553 1.343181 3.882698 17.977236 -2.449478 7.937489 -2.161821 -5.756006 1.521485 7.461179 -0.456522 -8.922720 -13.437523 -13.939193 -61.888439 -76.312582 91.032060 -3.399236 3.064736 -32.462336 -9.007533 3.797470 -1.818351 12.268578 -12.662257 12.485824 62.996969 -65.137501 -96.974548 -1.675371 9.534618 4.816632 17.405546 -72.974117 -13.471391 -114.846888 74.898623 -116.218731 -3.191799 -16.808479 5.180459 -0.271601 0.884274 -0.258131 -3.471165 -75.890943 22.400208 119.985416 78.310925 117.366960 -14.877067 -23.896109 -0.736718 -0.122503 -0.844680 -0.167772
